<svg xmlns="http://www.w3.org/2000/svg" version="1.1" viewBox="235 250 315 80" x="0px" xml:space="preserve" y="0px"> <g id="Layer_1"><title>New Trail Logo</title> <g> <g> <path style="fill:#ffffff" class="st0" d="M394.99,279.09c-3.3,0-5.63,2.23-5.63,5.34c0,2.14,0.68,3.2,3.11,5.34c2.62,2.33,3.49,4.08,3.49,7.28 c0,12.33-11.06,26.69-20.48,26.69c-2.91,0-4.76-2.04-4.76-5.34c0-2.52,0.58-5.63,2.62-15.72l4.66-21.64h-8.06l-2.62,12.23 c-1.55,7.38-4.17,13.78-8.44,20.96c-3.88,6.41-7.47,9.51-11.06,9.51c-2.33,0-3.88-1.94-3.88-4.76c0-2.33,0.87-6.6,2.81-13.49 c2.43-8.64,3.11-12.33,3.11-16.11c0-6.11-3.79-10.29-9.32-10.29c-4.09,0-7.14,1.72-9.99,5.76c-1.42-3.79-5.29-5.76-11.49-5.76 c-6.79,0-12.62,2.23-16.69,6.31c-5.53,5.82-9.03,15.14-9.03,24.65c0,1.63,0.19,3.11,0.46,4.52c-2.9,6.37-5.35,8.97-8.43,8.97 c-1.75,0-2.91-1.84-2.91-4.76c0-2.81,0.58-6.21,2.81-16.11l1.65-6.89c0.49-2.23,0.78-4.56,0.78-6.31 c0-6.41-3.69-10.38-9.61-10.38c-7.38,0-11.94,4.17-18.25,16.5c0.1-1.84,0.1-3.59,0.1-5.05c0-7.28-3.3-11.45-8.93-11.45 c-5.53,0-9.32,3.69-13.39,13.01l1.94,0.58c4.08-7.96,6.89-10.97,10.29-10.97c2.04,0,3.2,1.55,3.2,3.98c0,2.33,0,2.33-2.72,16.4 l-4.95,23.29h8.06l1.94-8.73c1.65-7.76,4.08-14.95,7.18-20.96c4.85-9.41,9.41-13.98,14.07-13.98c2.23,0,3.88,1.84,3.88,4.37 c0,1.75-0.39,4.27-1.16,6.79c-4.76,16.69-5.24,18.73-5.24,22.71c0,6.02,4.17,10.77,9.51,10.77c2.91,0,6.31-1.75,8.35-4.37 c1.05-1.29,1.83-2.48,2.72-4.32c2.15,5.51,6.81,8.69,13.4,8.69c4.76,0,9.41-1.55,13.1-4.27c2.62-2.04,4.27-3.98,7.28-8.73 l-1.75-0.97c-5.43,7.86-10.58,11.36-16.6,11.36c-4.95,0-7.67-3.59-7.67-10.19c0-1.75,0.1-3.11,0.49-5.82 c8.25-0.78,12.71-1.94,17.37-4.27c6.99-3.69,10.87-8.93,10.87-14.95c0-0.2-0.04-0.38-0.05-0.58c2.77-4.46,5.06-6.22,7.75-6.22 c2.04,0,3.4,1.55,3.4,3.98c0,3.01,0,3.01-3.2,16.4l-1.65,6.7c-0.58,2.23-0.87,4.37-0.87,6.89c0,6.6,3.49,10.68,9.12,10.68 c7.18,0,11.45-3.88,18.05-16.11c-0.29,2.14-0.39,3.88-0.39,5.34c0,6.99,3.69,10.77,10.48,10.77c6.31,0,11.94-2.81,16.11-8.06 c6.79-8.44,11.26-20.48,11.26-30.18C401.2,282.39,398.87,279.09,394.99,279.09z M317.41,299.66c-3.49,3.2-7.08,4.66-14.17,5.92 c1.84-8.44,3.01-11.94,5.63-16.6c2.62-4.85,6.31-7.67,9.9-7.67c2.91,0,4.66,2.04,4.66,5.24 C323.43,291.12,321,296.46,317.41,299.66z"></path> <path style="fill:#ffffff" class="st0" d="M547.44,253.42h-7.51v71.96h7.51V253.42z M526.41,257.12c-2.78,0-5.14,2.26-5.14,5.04 c0,2.98,2.26,5.24,5.14,5.24c2.88,0,5.14-2.26,5.14-5.14C531.55,259.38,529.29,257.12,526.41,257.12 M530.52,280.15h-7.51v45.23 h7.51V280.15z M491.18,285.6c9.15,0,15.32,6.79,15.32,17.07s-6.17,17.17-15.32,17.17c-9.25,0-15.32-6.79-15.32-17.27 C475.86,292.38,482.02,285.6,491.18,285.6 M513.48,280.15h-7.51v5.55c-5.04-4.73-9.35-6.58-15.52-6.58 c-13.36,0-22.83,9.87-22.83,23.65c0,6.48,1.96,12.13,5.65,16.24c4.11,4.52,10.69,7.4,16.96,7.4c6.17,0,10.9-1.95,15.73-6.58v5.55 h7.51V280.15z M439.01,280.15v45.23h7.51v-26.52c0-7.3,5.55-13.47,12.03-13.47c2.98,0,4.83,0.92,7.61,3.8l4.21-6.27 c-3.8-2.98-5.96-3.8-9.56-3.8c-5.55,0-9.46,2.16-14.29,7.71v-6.68H439.01z M419.95,265.55l-7.51,3.08v11.51h-8.84v6.48h8.84 v21.59c0,5.86,0.62,9.66,1.75,12.23c1.96,3.81,6.48,5.96,12.34,5.96c2.26,0,3.91-0.31,7.4-1.23l0.72-6.37 c-2.67,0.92-3.91,1.13-5.76,1.13c-2.16,0-4.11-0.41-5.55-1.13c-2.67-1.44-3.39-3.6-3.39-10.38v-21.79h13.98v-6.48h-13.98V265.55z "></path> </g> </g> </g> </svg>